<mxfile host="app.diagrams.net" modified="2023-04-03T13:20:02.024Z" agent="Mozilla/5.0 (Macintosh; Intel Mac OS X 10_15_7) AppleWebKit/537.36 (KHTML, like Gecko) Chrome/111.0.0.0 Safari/537.36" etag="W0D7lcUgUNSsobBgJJds" version="21.1.2" type="github">
  <diagram name="Page-1" id="hXCuwG57mc-VUr_f1HP0">
    <mxGraphModel dx="1674" dy="796" grid="1" gridSize="10" guides="1" tooltips="1" connect="1" arrows="1" fold="1" page="1" pageScale="1" pageWidth="827" pageHeight="1169" math="0" shadow="0">
      <root>
        <mxCell id="0" />
        <mxCell id="1" parent="0" />
        <mxCell id="xuCpeB7rJ87xg6paWrhZ-11" style="edgeStyle=orthogonalEdgeStyle;rounded=0;orthogonalLoop=1;jettySize=auto;html=1;entryX=0;entryY=0.5;entryDx=0;entryDy=0;entryPerimeter=0;" parent="1" source="xuCpeB7rJ87xg6paWrhZ-1" target="xuCpeB7rJ87xg6paWrhZ-6" edge="1">
          <mxGeometry relative="1" as="geometry" />
        </mxCell>
        <mxCell id="xuCpeB7rJ87xg6paWrhZ-12" value="Generates" style="edgeLabel;html=1;align=center;verticalAlign=middle;resizable=0;points=[];fontStyle=1" parent="xuCpeB7rJ87xg6paWrhZ-11" vertex="1" connectable="0">
          <mxGeometry x="-0.2143" relative="1" as="geometry">
            <mxPoint as="offset" />
          </mxGeometry>
        </mxCell>
        <mxCell id="xuCpeB7rJ87xg6paWrhZ-1" value="Employer&lt;br&gt;(Consumer)" style="rounded=1;whiteSpace=wrap;html=1;fontStyle=1" parent="1" vertex="1">
          <mxGeometry x="40" y="480" width="120" height="60" as="geometry" />
        </mxCell>
        <mxCell id="xuCpeB7rJ87xg6paWrhZ-2" value="Employee&lt;br&gt;(Provider)" style="rounded=1;whiteSpace=wrap;html=1;fontStyle=1" parent="1" vertex="1">
          <mxGeometry x="600" y="480" width="120" height="60" as="geometry" />
        </mxCell>
        <mxCell id="xuCpeB7rJ87xg6paWrhZ-10" value="&lt;b&gt;This pact file is downloaded from the broker&lt;br&gt;and is used to automatically generate the&lt;br&gt;tests in the Provider.&lt;/b&gt;" style="edgeStyle=orthogonalEdgeStyle;rounded=0;orthogonalLoop=1;jettySize=auto;html=1;" parent="1" source="xuCpeB7rJ87xg6paWrhZ-3" target="xuCpeB7rJ87xg6paWrhZ-2" edge="1">
          <mxGeometry relative="1" as="geometry" />
        </mxCell>
        <mxCell id="xuCpeB7rJ87xg6paWrhZ-3" value="Pact Flow&lt;br&gt;(Broker)" style="shape=cylinder3;whiteSpace=wrap;html=1;boundedLbl=1;backgroundOutline=1;size=15;fontStyle=1" parent="1" vertex="1">
          <mxGeometry x="357.5" y="290" width="60" height="80" as="geometry" />
        </mxCell>
        <mxCell id="xuCpeB7rJ87xg6paWrhZ-4" value="&lt;h1&gt;Employer Service&lt;/h1&gt;&lt;p&gt;&lt;b&gt;Employer&lt;/b&gt;&amp;nbsp;c&lt;i&gt;onsumes&lt;/i&gt; the service of the &lt;b&gt;Employee&lt;/b&gt; and hence is a perfect example of being called as &quot;&lt;b&gt;Consumer&lt;/b&gt;&quot; in contract testing context.&lt;/p&gt;" style="text;html=1;strokeColor=none;fillColor=none;spacing=5;spacingTop=-20;whiteSpace=wrap;overflow=hidden;rounded=0;" parent="1" vertex="1">
          <mxGeometry x="20" y="550" width="225" height="120" as="geometry" />
        </mxCell>
        <mxCell id="xuCpeB7rJ87xg6paWrhZ-5" value="&lt;h1&gt;Employee Service&amp;nbsp;&lt;/h1&gt;&lt;p&gt;&lt;b&gt;Employee&lt;/b&gt;&amp;nbsp;provides its services to the &lt;b&gt;Employer&lt;/b&gt;&amp;nbsp;and hence is a good example of a &quot;&lt;b&gt;Provider&lt;/b&gt;&quot;&lt;/p&gt;" style="text;html=1;strokeColor=none;fillColor=none;spacing=5;spacingTop=-20;whiteSpace=wrap;overflow=hidden;rounded=0;" parent="1" vertex="1">
          <mxGeometry x="560" y="540" width="225" height="120" as="geometry" />
        </mxCell>
        <mxCell id="xuCpeB7rJ87xg6paWrhZ-9" value="&lt;b&gt;Uploaded to&amp;nbsp;&lt;br&gt;a Central Server&amp;nbsp;&lt;br&gt;called as broker.&lt;/b&gt;" style="edgeStyle=orthogonalEdgeStyle;rounded=0;orthogonalLoop=1;jettySize=auto;html=1;entryX=0.35;entryY=0.988;entryDx=0;entryDy=0;entryPerimeter=0;" parent="1" source="xuCpeB7rJ87xg6paWrhZ-6" target="xuCpeB7rJ87xg6paWrhZ-3" edge="1">
          <mxGeometry relative="1" as="geometry" />
        </mxCell>
        <mxCell id="xuCpeB7rJ87xg6paWrhZ-6" value="Pact Json File" style="verticalLabelPosition=bottom;html=1;verticalAlign=top;align=center;strokeColor=none;fillColor=#00BEF2;shape=mxgraph.azure.cloud_services_configuration_file;pointerEvents=1;" parent="1" vertex="1">
          <mxGeometry x="300" y="485" width="47.5" height="50" as="geometry" />
        </mxCell>
        <mxCell id="xuCpeB7rJ87xg6paWrhZ-15" style="edgeStyle=orthogonalEdgeStyle;rounded=0;orthogonalLoop=1;jettySize=auto;html=1;entryX=0;entryY=0.5;entryDx=0;entryDy=0;" parent="1" source="xuCpeB7rJ87xg6paWrhZ-13" target="xuCpeB7rJ87xg6paWrhZ-14" edge="1">
          <mxGeometry relative="1" as="geometry" />
        </mxCell>
        <mxCell id="xuCpeB7rJ87xg6paWrhZ-16" value="Calls" style="edgeLabel;html=1;align=center;verticalAlign=middle;resizable=0;points=[];fontStyle=1" parent="xuCpeB7rJ87xg6paWrhZ-15" vertex="1" connectable="0">
          <mxGeometry x="-0.0767" y="1" relative="1" as="geometry">
            <mxPoint as="offset" />
          </mxGeometry>
        </mxCell>
        <mxCell id="xuCpeB7rJ87xg6paWrhZ-13" value="Employer&lt;br&gt;(Consumer)" style="rounded=1;whiteSpace=wrap;html=1;fontStyle=1" parent="1" vertex="1">
          <mxGeometry x="95" y="100" width="120" height="60" as="geometry" />
        </mxCell>
        <mxCell id="xuCpeB7rJ87xg6paWrhZ-14" value="Employee&lt;br&gt;(Provider)" style="rounded=1;whiteSpace=wrap;html=1;fontStyle=1" parent="1" vertex="1">
          <mxGeometry x="612.5" y="100" width="120" height="60" as="geometry" />
        </mxCell>
        <mxCell id="xuCpeB7rJ87xg6paWrhZ-17" value="" style="endArrow=none;dashed=1;html=1;dashPattern=1 3;strokeWidth=2;rounded=0;" parent="1" edge="1">
          <mxGeometry width="50" height="50" relative="1" as="geometry">
            <mxPoint x="84" y="210" as="sourcePoint" />
            <mxPoint x="744" y="210" as="targetPoint" />
          </mxGeometry>
        </mxCell>
        <mxCell id="xuCpeB7rJ87xg6paWrhZ-18" value="&lt;h1&gt;Flow of Events&lt;/h1&gt;" style="text;html=1;strokeColor=none;fillColor=none;spacing=5;spacingTop=-20;whiteSpace=wrap;overflow=hidden;rounded=0;" parent="1" vertex="1">
          <mxGeometry x="319" y="230" width="190" height="30" as="geometry" />
        </mxCell>
        <mxCell id="xuCpeB7rJ87xg6paWrhZ-19" value="&lt;h1&gt;Relationship between Employer and Employee&lt;/h1&gt;" style="text;html=1;strokeColor=none;fillColor=none;spacing=5;spacingTop=-20;whiteSpace=wrap;overflow=hidden;rounded=0;" parent="1" vertex="1">
          <mxGeometry x="167.5" y="40" width="565" height="60" as="geometry" />
        </mxCell>
        <mxCell id="xuCpeB7rJ87xg6paWrhZ-20" value="" style="endArrow=none;dashed=1;html=1;dashPattern=1 3;strokeWidth=2;rounded=0;" parent="1" edge="1">
          <mxGeometry width="50" height="50" relative="1" as="geometry">
            <mxPoint x="40" y="710" as="sourcePoint" />
            <mxPoint x="760" y="710" as="targetPoint" />
          </mxGeometry>
        </mxCell>
        <mxCell id="xuCpeB7rJ87xg6paWrhZ-21" value="Spring Boot API" style="swimlane;whiteSpace=wrap;html=1;fontStyle=1" parent="1" vertex="1">
          <mxGeometry x="100" y="800" width="400" height="670" as="geometry" />
        </mxCell>
        <mxCell id="xuCpeB7rJ87xg6paWrhZ-25" value="Test Code" style="swimlane;whiteSpace=wrap;html=1;fontStyle=1" parent="xuCpeB7rJ87xg6paWrhZ-21" vertex="1">
          <mxGeometry x="57.5" y="250" width="292.5" height="390" as="geometry" />
        </mxCell>
        <mxCell id="xuCpeB7rJ87xg6paWrhZ-28" value="unit tests" style="rounded=1;whiteSpace=wrap;html=1;fontStyle=1" parent="xuCpeB7rJ87xg6paWrhZ-25" vertex="1">
          <mxGeometry x="62.5" y="39" width="147.5" height="80" as="geometry" />
        </mxCell>
        <mxCell id="xuCpeB7rJ87xg6paWrhZ-29" value="integration tests" style="rounded=1;whiteSpace=wrap;html=1;fontStyle=1" parent="xuCpeB7rJ87xg6paWrhZ-25" vertex="1">
          <mxGeometry x="67.5" y="162.5" width="142.5" height="65" as="geometry" />
        </mxCell>
        <mxCell id="xuCpeB7rJ87xg6paWrhZ-30" value="Contract Tests" style="rounded=1;whiteSpace=wrap;html=1;fontStyle=1" parent="xuCpeB7rJ87xg6paWrhZ-25" vertex="1">
          <mxGeometry x="67.5" y="290" width="152.5" height="60" as="geometry" />
        </mxCell>
        <mxCell id="xuCpeB7rJ87xg6paWrhZ-37" value="" style="shape=flexArrow;endArrow=classic;html=1;rounded=0;" parent="xuCpeB7rJ87xg6paWrhZ-25" edge="1">
          <mxGeometry width="50" height="50" relative="1" as="geometry">
            <mxPoint x="210" y="194.5" as="sourcePoint" />
            <mxPoint x="402" y="194.5" as="targetPoint" />
          </mxGeometry>
        </mxCell>
        <mxCell id="xuCpeB7rJ87xg6paWrhZ-26" value="Source Code" style="swimlane;whiteSpace=wrap;html=1;fontStyle=1" parent="xuCpeB7rJ87xg6paWrhZ-21" vertex="1">
          <mxGeometry x="60" y="60" width="290" height="150" as="geometry" />
        </mxCell>
        <mxCell id="xuCpeB7rJ87xg6paWrhZ-27" value="src/main/java" style="rounded=1;whiteSpace=wrap;html=1;fontStyle=1" parent="xuCpeB7rJ87xg6paWrhZ-26" vertex="1">
          <mxGeometry x="55" y="55" width="180" height="65" as="geometry" />
        </mxCell>
        <mxCell id="xuCpeB7rJ87xg6paWrhZ-41" value="" style="shape=flexArrow;endArrow=classic;html=1;rounded=0;" parent="xuCpeB7rJ87xg6paWrhZ-21" edge="1">
          <mxGeometry width="50" height="50" relative="1" as="geometry">
            <mxPoint x="277.5" y="570" as="sourcePoint" />
            <mxPoint x="469.5" y="570" as="targetPoint" />
          </mxGeometry>
        </mxCell>
        <mxCell id="xuCpeB7rJ87xg6paWrhZ-35" value="" style="shape=flexArrow;endArrow=classic;html=1;rounded=0;" parent="1" source="xuCpeB7rJ87xg6paWrhZ-28" edge="1">
          <mxGeometry width="50" height="50" relative="1" as="geometry">
            <mxPoint x="430" y="1220" as="sourcePoint" />
            <mxPoint x="560" y="1129" as="targetPoint" />
          </mxGeometry>
        </mxCell>
        <mxCell id="xuCpeB7rJ87xg6paWrhZ-36" value="unit tests are written to test &lt;b&gt;classes&lt;/b&gt; and &lt;b&gt;methods&lt;/b&gt;.&amp;nbsp;Code coverage is calculated from here." style="shape=callout;whiteSpace=wrap;html=1;perimeter=calloutPerimeter;fontStyle=0" parent="1" vertex="1">
          <mxGeometry x="560" y="1080" width="140" height="120" as="geometry" />
        </mxCell>
        <mxCell id="xuCpeB7rJ87xg6paWrhZ-40" value="To test the integration between your controller, service and model. These tests validates the top most layer of your api i.e. controller." style="shape=callout;whiteSpace=wrap;html=1;perimeter=calloutPerimeter;fontStyle=0" parent="1" vertex="1">
          <mxGeometry x="560" y="1220" width="240" height="90" as="geometry" />
        </mxCell>
        <mxCell id="xuCpeB7rJ87xg6paWrhZ-42" value="3rd type of test. This you write to validate how well your api integrates to another API or Component.&lt;br&gt;These kind of tests gives you confidence to modify your API with out worrying about the impact your change would cause on other API." style="shape=callout;whiteSpace=wrap;html=1;perimeter=calloutPerimeter;fontStyle=0;size=0;position=0.17;position2=0.54;base=39;" parent="1" vertex="1">
          <mxGeometry x="570" y="1330" width="240" height="100" as="geometry" />
        </mxCell>
        <mxCell id="xuCpeB7rJ87xg6paWrhZ-43" value="" style="endArrow=none;dashed=1;html=1;dashPattern=1 3;strokeWidth=2;rounded=0;" parent="1" edge="1">
          <mxGeometry width="50" height="50" relative="1" as="geometry">
            <mxPoint x="70" y="1491" as="sourcePoint" />
            <mxPoint x="770" y="1490" as="targetPoint" />
          </mxGeometry>
        </mxCell>
        <mxCell id="SSDfRQaTrfwXQpy7WAfe-3" value="" style="edgeStyle=orthogonalEdgeStyle;rounded=0;orthogonalLoop=1;jettySize=auto;html=1;" edge="1" parent="1" source="SSDfRQaTrfwXQpy7WAfe-1" target="SSDfRQaTrfwXQpy7WAfe-2">
          <mxGeometry relative="1" as="geometry" />
        </mxCell>
        <mxCell id="SSDfRQaTrfwXQpy7WAfe-1" value="&lt;b&gt;Step 1&lt;/b&gt;&lt;br&gt;Identify Consumer and Provider Relationship" style="rounded=1;whiteSpace=wrap;html=1;" vertex="1" parent="1">
          <mxGeometry x="40" y="1636.25" width="120" height="77.5" as="geometry" />
        </mxCell>
        <mxCell id="SSDfRQaTrfwXQpy7WAfe-5" value="" style="edgeStyle=orthogonalEdgeStyle;rounded=0;orthogonalLoop=1;jettySize=auto;html=1;" edge="1" parent="1" source="SSDfRQaTrfwXQpy7WAfe-2" target="SSDfRQaTrfwXQpy7WAfe-4">
          <mxGeometry relative="1" as="geometry" />
        </mxCell>
        <mxCell id="SSDfRQaTrfwXQpy7WAfe-2" value="&lt;b&gt;Step 2&lt;br&gt;&lt;/b&gt;Provider &lt;b&gt;EmployeeService&lt;/b&gt; API&amp;nbsp; makes a Change" style="rounded=1;whiteSpace=wrap;html=1;" vertex="1" parent="1">
          <mxGeometry x="245" y="1635" width="120" height="80" as="geometry" />
        </mxCell>
        <mxCell id="SSDfRQaTrfwXQpy7WAfe-7" value="" style="edgeStyle=orthogonalEdgeStyle;rounded=0;orthogonalLoop=1;jettySize=auto;html=1;" edge="1" parent="1" source="SSDfRQaTrfwXQpy7WAfe-4" target="SSDfRQaTrfwXQpy7WAfe-6">
          <mxGeometry relative="1" as="geometry" />
        </mxCell>
        <mxCell id="SSDfRQaTrfwXQpy7WAfe-4" value="&lt;b&gt;Step 3&lt;br&gt;&lt;/b&gt;Consumer &lt;b&gt;EmployerService&lt;/b&gt; API impacted Because of this Change" style="whiteSpace=wrap;html=1;rounded=1;" vertex="1" parent="1">
          <mxGeometry x="460" y="1630" width="130" height="90" as="geometry" />
        </mxCell>
        <mxCell id="SSDfRQaTrfwXQpy7WAfe-9" value="" style="edgeStyle=orthogonalEdgeStyle;rounded=0;orthogonalLoop=1;jettySize=auto;html=1;" edge="1" parent="1" source="SSDfRQaTrfwXQpy7WAfe-6" target="SSDfRQaTrfwXQpy7WAfe-8">
          <mxGeometry relative="1" as="geometry" />
        </mxCell>
        <mxCell id="SSDfRQaTrfwXQpy7WAfe-6" value="&lt;b&gt;Step 4&lt;br&gt;&lt;/b&gt;Write Contract Test in Consumer" style="whiteSpace=wrap;html=1;rounded=1;" vertex="1" parent="1">
          <mxGeometry x="660" y="1645" width="120" height="60" as="geometry" />
        </mxCell>
        <mxCell id="SSDfRQaTrfwXQpy7WAfe-11" value="" style="edgeStyle=orthogonalEdgeStyle;rounded=0;orthogonalLoop=1;jettySize=auto;html=1;" edge="1" parent="1" source="SSDfRQaTrfwXQpy7WAfe-8" target="SSDfRQaTrfwXQpy7WAfe-10">
          <mxGeometry relative="1" as="geometry" />
        </mxCell>
        <mxCell id="SSDfRQaTrfwXQpy7WAfe-8" value="&lt;b&gt;Step 5&lt;br&gt;&lt;/b&gt;Run the Consumer Test and Generate Pact File" style="whiteSpace=wrap;html=1;rounded=1;" vertex="1" parent="1">
          <mxGeometry x="660" y="1785" width="120" height="60" as="geometry" />
        </mxCell>
        <mxCell id="SSDfRQaTrfwXQpy7WAfe-13" value="" style="edgeStyle=orthogonalEdgeStyle;rounded=0;orthogonalLoop=1;jettySize=auto;html=1;" edge="1" parent="1" source="SSDfRQaTrfwXQpy7WAfe-10" target="SSDfRQaTrfwXQpy7WAfe-12">
          <mxGeometry relative="1" as="geometry" />
        </mxCell>
        <mxCell id="SSDfRQaTrfwXQpy7WAfe-10" value="&lt;b&gt;Step 6&lt;br&gt;&lt;/b&gt;Send the Generated Pact JSON file to Provider" style="whiteSpace=wrap;html=1;rounded=1;" vertex="1" parent="1">
          <mxGeometry x="460" y="1785" width="120" height="60" as="geometry" />
        </mxCell>
        <mxCell id="SSDfRQaTrfwXQpy7WAfe-15" value="" style="edgeStyle=orthogonalEdgeStyle;rounded=0;orthogonalLoop=1;jettySize=auto;html=1;" edge="1" parent="1" source="SSDfRQaTrfwXQpy7WAfe-12" target="SSDfRQaTrfwXQpy7WAfe-14">
          <mxGeometry relative="1" as="geometry" />
        </mxCell>
        <mxCell id="SSDfRQaTrfwXQpy7WAfe-12" value="&lt;b&gt;Step 7&lt;br&gt;&lt;/b&gt;Write the Validation Contract Test in Provider. Pact FW will use this Pact File to generate Tests" style="whiteSpace=wrap;html=1;rounded=1;" vertex="1" parent="1">
          <mxGeometry x="258.75" y="1772.5" width="130" height="85" as="geometry" />
        </mxCell>
        <mxCell id="SSDfRQaTrfwXQpy7WAfe-17" value="" style="edgeStyle=orthogonalEdgeStyle;rounded=0;orthogonalLoop=1;jettySize=auto;html=1;" edge="1" parent="1" source="SSDfRQaTrfwXQpy7WAfe-14" target="SSDfRQaTrfwXQpy7WAfe-16">
          <mxGeometry relative="1" as="geometry" />
        </mxCell>
        <mxCell id="SSDfRQaTrfwXQpy7WAfe-14" value="&lt;b&gt;Step 8&lt;br&gt;&lt;/b&gt;Run the Validation Contract Test in Provider, every time a change is made" style="whiteSpace=wrap;html=1;rounded=1;" vertex="1" parent="1">
          <mxGeometry x="50" y="1777.5" width="130" height="75" as="geometry" />
        </mxCell>
        <mxCell id="SSDfRQaTrfwXQpy7WAfe-21" style="edgeStyle=orthogonalEdgeStyle;rounded=0;orthogonalLoop=1;jettySize=auto;html=1;" edge="1" parent="1" source="SSDfRQaTrfwXQpy7WAfe-16" target="SSDfRQaTrfwXQpy7WAfe-20">
          <mxGeometry relative="1" as="geometry" />
        </mxCell>
        <mxCell id="SSDfRQaTrfwXQpy7WAfe-16" value="&lt;b&gt;Step 9&lt;br&gt;&lt;/b&gt;Provider Side Contract Test will notify the team if the change is causing any problem in the Conumber" style="whiteSpace=wrap;html=1;rounded=1;" vertex="1" parent="1">
          <mxGeometry x="37.5" y="1920" width="155" height="90" as="geometry" />
        </mxCell>
        <mxCell id="SSDfRQaTrfwXQpy7WAfe-20" value="" style="ellipse;html=1;shape=endState;fillColor=#000000;strokeColor=#ff0000;" vertex="1" parent="1">
          <mxGeometry x="270" y="1950" width="30" height="30" as="geometry" />
        </mxCell>
        <mxCell id="SSDfRQaTrfwXQpy7WAfe-23" value="&lt;h1&gt;Flow of Tasks&lt;/h1&gt;&lt;p&gt;&lt;br&gt;&lt;/p&gt;" style="text;html=1;strokeColor=none;fillColor=none;spacing=5;spacingTop=-20;whiteSpace=wrap;overflow=hidden;rounded=0;" vertex="1" parent="1">
          <mxGeometry x="319" y="1570" width="177.5" height="40" as="geometry" />
        </mxCell>
        <mxCell id="SSDfRQaTrfwXQpy7WAfe-24" value="" style="curved=1;endArrow=classic;html=1;rounded=0;exitX=0.5;exitY=1;exitDx=0;exitDy=0;entryX=0.558;entryY=1.017;entryDx=0;entryDy=0;entryPerimeter=0;" edge="1" parent="1" source="SSDfRQaTrfwXQpy7WAfe-8" target="SSDfRQaTrfwXQpy7WAfe-10">
          <mxGeometry width="50" height="50" relative="1" as="geometry">
            <mxPoint x="400" y="1770" as="sourcePoint" />
            <mxPoint x="450" y="1720" as="targetPoint" />
            <Array as="points">
              <mxPoint x="670" y="1910" />
              <mxPoint x="540" y="1910" />
            </Array>
          </mxGeometry>
        </mxCell>
        <mxCell id="SSDfRQaTrfwXQpy7WAfe-25" value="Repeat the process of generating new pact file&lt;br&gt;every time there is a change in Consumer API." style="edgeLabel;html=1;align=center;verticalAlign=middle;resizable=0;points=[];" vertex="1" connectable="0" parent="SSDfRQaTrfwXQpy7WAfe-24">
          <mxGeometry x="0.1252" y="-1" relative="1" as="geometry">
            <mxPoint x="54" y="21" as="offset" />
          </mxGeometry>
        </mxCell>
      </root>
    </mxGraphModel>
  </diagram>
</mxfile>
